<svg width="271" height="213" viewBox="0 0 271 213" fill="none" xmlns="http://www.w3.org/2000/svg">
<g clip-path="url(#clip0_124_72)">
<path d="M246.681 194.425C241.486 199.987 235.533 204.79 228.998 208.691C228.848 208.783 228.696 208.87 228.543 208.959L217.964 199.596C218.075 199.493 218.198 199.377 218.33 199.249C226.213 191.764 265.346 139.43 267.954 126.686C267.774 127.748 270.307 169.384 246.681 194.425Z" fill="#F0F0F0"/>
<path d="M231.04 210.498C230.84 210.546 230.636 210.59 230.432 210.631L222.495 203.606C222.65 203.552 222.832 203.488 223.039 203.417C226.444 202.211 236.587 198.571 246.68 194.425C257.526 189.968 268.319 184.932 270.641 181.706C270.143 182.456 254.804 205.184 231.04 210.498Z" fill="#F0F0F0"/>
<path d="M246.534 55.9135H245.404V24.95C245.404 22.5966 244.94 20.2663 244.039 18.092C243.139 15.9178 241.819 13.9422 240.155 12.2781C238.491 10.614 236.515 9.29393 234.341 8.39332C232.166 7.49271 229.836 7.02917 227.483 7.02917H161.882C159.529 7.02917 157.199 7.4927 155.024 8.3933C152.85 9.2939 150.874 10.6139 149.21 12.278C147.546 13.9421 146.226 15.9177 145.326 18.092C144.425 20.2662 143.961 22.5966 143.961 24.95V194.818C143.961 197.172 144.425 199.502 145.326 201.676C146.226 203.851 147.546 205.826 149.21 207.49C150.874 209.154 152.85 210.474 155.024 211.375C157.198 212.276 159.529 212.739 161.882 212.739H227.483C229.836 212.739 232.166 212.276 234.341 211.375C236.515 210.474 238.491 209.154 240.155 207.49C241.819 205.826 243.139 203.851 244.039 201.676C244.94 199.502 245.404 197.172 245.404 194.818V77.9539H246.534V55.9135Z" fill="#3F3D56"/>
<path d="M241.589 25.0731V194.694C241.589 196.452 241.243 198.192 240.57 199.816C239.898 201.439 238.912 202.915 237.669 204.157C236.426 205.4 234.95 206.385 233.326 207.057C231.702 207.73 229.962 208.075 228.204 208.075H162.288C160.531 208.075 158.791 207.729 157.167 207.056C155.544 206.384 154.069 205.398 152.826 204.156C151.584 202.913 150.598 201.438 149.926 199.815C149.253 198.191 148.907 196.451 148.907 194.694V25.0731C148.907 23.316 149.253 21.576 149.926 19.9525C150.598 18.3291 151.584 16.854 152.826 15.6115C154.069 14.369 155.544 13.3834 157.167 12.7111C158.791 12.0387 160.531 11.6927 162.288 11.6928H170.287C169.894 12.6583 169.745 13.7055 169.852 14.7423C169.959 15.779 170.319 16.7736 170.901 17.6386C171.482 18.5035 172.268 19.2123 173.187 19.7026C174.107 20.1929 175.133 20.4497 176.175 20.4504H213.756C214.799 20.4514 215.826 20.1957 216.747 19.7058C217.668 19.216 218.454 18.5071 219.035 17.6416C219.617 16.7762 219.977 15.7808 220.084 14.7434C220.19 13.7059 220.039 12.6582 219.645 11.6928H228.204C229.962 11.6922 231.702 12.0378 233.326 12.7099C234.95 13.3821 236.426 14.3676 237.669 15.6101C238.912 16.8526 239.898 18.3279 240.57 19.9516C241.243 21.5753 241.589 23.3156 241.589 25.0731V25.0731Z" fill="white"/>
<path d="M221.085 113.217H163.147C162.132 113.216 161.159 112.812 160.442 112.095C159.724 111.377 159.32 110.404 159.319 109.39V107.484C159.32 106.47 159.724 105.497 160.442 104.779C161.159 104.061 162.132 103.658 163.147 103.657H221.085C222.1 103.658 223.073 104.061 223.791 104.779C224.508 105.497 224.912 106.47 224.913 107.484V109.39C224.912 110.404 224.508 111.377 223.791 112.095C223.073 112.812 222.1 113.216 221.085 113.217Z" fill="#F0F0F0"/>
<path d="M221.085 129.641H163.147C162.132 129.64 161.159 129.236 160.442 128.519C159.724 127.801 159.32 126.828 159.319 125.813V123.908C159.32 122.893 159.724 121.92 160.442 121.203C161.159 120.485 162.132 120.081 163.147 120.08H221.085C222.1 120.081 223.073 120.485 223.791 121.203C224.508 121.92 224.912 122.893 224.913 123.908V125.813C224.912 126.828 224.508 127.801 223.791 128.519C223.073 129.236 222.1 129.64 221.085 129.641V129.641Z" fill="#F0F0F0"/>
<path d="M223.983 109.544H166.045C164.979 109.543 163.958 109.119 163.204 108.366C162.451 107.612 162.027 106.591 162.026 105.525V103.62C162.027 102.554 162.451 101.533 163.204 100.779C163.958 100.026 164.979 99.602 166.045 99.6008H223.983C225.049 99.602 226.07 100.026 226.824 100.779C227.577 101.533 228.001 102.554 228.002 103.62V105.525C228.001 106.591 227.577 107.612 226.824 108.366C226.07 109.119 225.049 109.543 223.983 109.544V109.544ZM166.045 100.366C165.182 100.367 164.355 100.71 163.745 101.32C163.135 101.93 162.792 102.757 162.791 103.62V105.525C162.792 106.388 163.135 107.215 163.745 107.825C164.355 108.435 165.182 108.778 166.045 108.779H223.983C224.846 108.778 225.673 108.435 226.283 107.825C226.893 107.215 227.236 106.388 227.237 105.525V103.62C227.236 102.757 226.893 101.93 226.283 101.32C225.673 100.71 224.846 100.367 223.983 100.366H166.045Z" fill="#3F3D56"/>
<path d="M223.983 125.968H166.045C164.979 125.966 163.958 125.543 163.204 124.789C162.451 124.036 162.027 123.014 162.026 121.949V120.043C162.027 118.978 162.451 117.956 163.204 117.203C163.958 116.449 164.979 116.025 166.045 116.024H223.983C225.049 116.025 226.07 116.449 226.824 117.203C227.577 117.956 228.001 118.978 228.002 120.043V121.949C228.001 123.014 227.577 124.036 226.824 124.789C226.07 125.543 225.049 125.966 223.983 125.968V125.968ZM166.045 116.79C165.182 116.791 164.355 117.134 163.745 117.744C163.135 118.354 162.792 119.181 162.791 120.043V121.949C162.792 122.811 163.135 123.638 163.745 124.248C164.355 124.858 165.182 125.201 166.045 125.202H223.983C224.846 125.201 225.673 124.858 226.283 124.248C226.893 123.638 227.236 122.811 227.237 121.949V120.043C227.236 119.181 226.893 118.354 226.283 117.744C225.673 117.134 224.846 116.791 223.983 116.79H166.045Z" fill="#3F3D56"/>
<path d="M241.589 25.0731V61.9681C235.727 63.5104 229.589 63.6874 223.647 62.4853C217.705 61.2833 212.119 58.7343 207.317 55.0344C202.515 51.3345 198.626 46.5824 195.949 41.1437C193.271 35.705 191.878 29.7246 191.874 23.6627C191.874 22.5807 191.918 21.5099 192.005 20.4504H213.756C214.799 20.4514 215.826 20.1957 216.747 19.7058C217.667 19.216 218.453 18.5071 219.035 17.6416C219.617 16.7762 219.977 15.7808 220.083 14.7434C220.19 13.7059 220.039 12.6582 219.645 11.6928H228.204C229.962 11.6922 231.702 12.0378 233.326 12.7099C234.95 13.3821 236.425 14.3676 237.668 15.6101C238.911 16.8526 239.897 18.3279 240.57 19.9516C241.243 21.5753 241.589 23.3156 241.589 25.0731V25.0731Z" fill="#F0F0F0"/>
<path d="M182.213 205.77C182.213 206.548 182.184 207.316 182.122 208.075H162.288C160.531 208.075 158.791 207.729 157.167 207.056C155.544 206.384 154.069 205.398 152.826 204.156C151.584 202.913 150.598 201.438 149.926 199.815C149.253 198.191 148.907 196.451 148.907 194.694V176.551C153.065 176.01 157.29 176.362 161.301 177.583C165.312 178.803 169.016 180.864 172.168 183.629C175.319 186.394 177.845 189.799 179.578 193.617C181.31 197.435 182.208 201.578 182.213 205.77H182.213Z" fill="#8156FD"/>
<path d="M22.2471 173.936C22.8044 174.181 23.4362 174.195 24.0039 173.975C24.5715 173.755 25.0287 173.319 25.2752 172.762L43.1426 132.267C43.5515 131.341 43.6765 130.314 43.5016 129.316C43.3268 128.318 42.86 127.395 42.1603 126.662C41.4606 125.93 40.5594 125.421 39.5708 125.201C38.5821 124.981 37.5503 125.059 36.6059 125.425H36.6058C35.5147 125.842 34.6017 126.624 34.0221 127.638C33.9299 127.798 33.8463 127.963 33.7716 128.132L15.9042 168.627C15.7825 168.903 15.7162 169.2 15.7093 169.502C15.7024 169.803 15.755 170.103 15.864 170.384C15.9731 170.666 16.1364 170.923 16.3448 171.141C16.5531 171.359 16.8024 171.534 17.0783 171.655L22.2471 173.936Z" fill="#8156FD"/>
<path d="M42.4087 148.892L24.7356 144.965L29.1099 133.393C29.8551 130.564 31.5893 128.097 33.9979 126.437C36.4066 124.778 39.3302 124.037 42.2384 124.349L42.4087 124.368L42.4087 148.892Z" fill="#2F2E41"/>
<path d="M78.1058 174.515C77.586 174.514 77.0775 174.363 76.642 174.079C76.2064 173.795 75.8624 173.392 75.6515 172.916L57.7842 132.422C57.216 131.133 57.1632 129.676 57.6366 128.35C58.11 127.024 59.0738 125.929 60.3295 125.292C61.5852 124.655 63.0374 124.523 64.3873 124.924C65.7372 125.325 66.8822 126.228 67.5867 127.447V127.447C67.6857 127.619 67.7755 127.796 67.8556 127.978L85.7229 168.473C86.0098 169.123 86.0266 169.86 85.7697 170.523C85.5129 171.185 85.0033 171.719 84.3532 172.006L79.0092 174.363L79.0065 174.357C78.7176 174.462 78.4129 174.515 78.1058 174.515V174.515Z" fill="#8156FD"/>
<path d="M53.3904 160.609C52.7815 160.61 52.1977 160.852 51.7672 161.283C51.3366 161.713 51.0944 162.297 51.0938 162.906V209.992C51.0944 210.601 51.3366 211.185 51.7672 211.615C52.1977 212.046 52.7815 212.288 53.3904 212.289H59.0398C59.6487 212.288 60.2325 212.046 60.663 211.615C61.0936 211.185 61.3358 210.601 61.3364 209.992V162.906C61.3358 162.297 61.0936 161.713 60.663 161.283C60.2325 160.852 59.6487 160.61 59.0398 160.609H53.3904Z" fill="#8156FD"/>
<path d="M42.2168 160.609C41.6079 160.61 41.0241 160.852 40.5936 161.283C40.163 161.713 39.9208 162.297 39.9202 162.906V209.992C39.9208 210.601 40.163 211.185 40.5936 211.615C41.0241 212.046 41.6079 212.288 42.2168 212.289H47.8663C48.4752 212.288 49.059 212.046 49.4895 211.615C49.9201 211.185 50.1623 210.601 50.1629 209.992V162.906C50.1623 162.297 49.9201 161.713 49.4895 161.283C49.059 160.852 48.4752 160.61 47.8663 160.609H42.2168Z" fill="#8156FD"/>
<path d="M50.4594 111.279C61.2407 111.279 69.9806 102.539 69.9806 91.7575C69.9806 80.9763 61.2407 72.2363 50.4594 72.2363C39.6782 72.2363 30.9382 80.9763 30.9382 91.7575C30.9382 102.539 39.6782 111.279 50.4594 111.279Z" fill="#8156FD"/>
<path d="M56.9563 99.952C58.2217 99.9169 59.7966 99.873 61.0099 98.9867C61.3711 98.712 61.668 98.3616 61.8796 97.96C62.0912 97.5585 62.2124 97.1156 62.2348 96.6623C62.2567 96.3401 62.2038 96.0172 62.0803 95.7189C61.9568 95.4205 61.7659 95.1548 61.5227 94.9424C60.889 94.4069 59.9637 94.2814 58.9665 94.5744L59.9996 87.0241L59.2412 86.9202L58.0266 95.7966L58.6599 95.5059C59.3942 95.1691 60.4022 94.9977 61.0285 95.527C61.1823 95.6654 61.3021 95.8374 61.3787 96.0296C61.4552 96.2218 61.4864 96.4291 61.4697 96.6353C61.4512 96.9727 61.3601 97.3022 61.2029 97.6012C61.0456 97.9003 60.8257 98.162 60.5583 98.3685C59.6141 99.0581 58.3588 99.1471 56.9351 99.1869L56.9563 99.952Z" fill="#2F2E41"/>
<path d="M67.873 87.6754H63.75V88.4409H67.873V87.6754Z" fill="#2F2E41"/>
<path d="M54.8594 87.6754H50.7363V88.4409H54.8594V87.6754Z" fill="#2F2E41"/>
<path d="M69.8021 174.753L62.776 123.462C62.7006 122.912 62.4286 122.408 62.0103 122.043C61.5919 121.678 61.0556 121.477 60.5005 121.477H55.1971C55.2192 121.35 55.2307 121.222 55.2315 121.094V119.18C55.2314 118.571 54.9895 117.987 54.5588 117.556C54.1281 117.126 53.5439 116.884 52.9348 116.884H48.3416C47.7325 116.884 47.1484 117.126 46.7177 117.556C46.287 117.987 46.045 118.571 46.045 119.18V121.094C46.0458 121.222 46.0573 121.35 46.0794 121.477H40.776C40.2209 121.477 39.6845 121.678 39.2662 122.043C38.8479 122.408 38.5759 122.912 38.5005 123.462L31.4744 174.753C31.4299 175.078 31.4555 175.408 31.5494 175.722C31.6434 176.037 31.8035 176.327 32.0191 176.574C32.2346 176.821 32.5006 177.019 32.7991 177.155C33.0976 177.291 33.4218 177.361 33.7497 177.361H67.5267C67.8547 177.361 68.1788 177.291 68.4773 177.155C68.7758 177.019 69.0418 176.821 69.2574 176.574C69.4729 176.327 69.6331 176.037 69.727 175.722C69.821 175.408 69.8466 175.078 69.8021 174.753V174.753Z" fill="#2F2E41"/>
<path d="M58.8682 148.892V124.368L59.0384 124.349C61.9502 124.037 64.8771 124.781 67.2873 126.444C69.6975 128.107 71.4312 130.58 72.1733 133.413L76.5412 144.965L58.8682 148.892Z" fill="#2F2E41"/>
<path d="M49.4763 111.888L35.9739 106.647C33.766 105.79 31.5458 104.959 29.3496 104.073C28.4088 103.745 27.5422 103.234 26.7997 102.57C26.1533 101.885 25.7128 101.033 25.5285 100.11C25.0602 98.1303 25.1449 95.9662 25.1783 93.9462C25.2042 91.7364 25.3861 89.5312 25.7225 87.347C26.3121 83.2426 27.6969 79.2926 29.7991 75.7183C33.5857 69.5054 40.1098 64.831 47.6142 65.2041C51.0885 65.3768 54.5827 66.6235 57.1641 68.9989C57.4333 69.3206 57.7354 69.6135 58.0655 69.8725C58.2949 69.9586 58.5446 69.9753 58.7834 69.9207C59.0984 69.9004 59.4137 69.885 59.7292 69.8743C60.824 69.8281 61.9207 69.8741 63.0078 70.0118C64.9889 70.2259 66.8665 71.0055 68.4165 72.2577C69.7065 73.3673 70.7561 74.9339 70.8641 76.6748C70.9162 77.4739 70.7841 78.2744 70.4779 79.0144C70.1716 79.7544 69.6995 80.4142 69.0979 80.9428C67.487 82.3005 65.1886 81.8233 63.2563 81.7209L56.1775 81.3459L52.5909 81.1559C51.8524 81.1168 51.8545 82.2652 52.5909 82.3042L62.1237 82.8092C63.6556 82.8904 65.2345 83.0893 66.7676 82.9974C67.9456 82.9441 69.0705 82.4916 69.9573 81.7143C70.7672 80.9703 71.3705 80.0291 71.7083 78.9825C72.0462 77.936 72.1071 76.8197 71.8852 75.7426C71.3937 73.3934 69.6453 71.45 67.5956 70.2939C64.8067 68.7208 61.4759 68.5701 58.3553 68.8026L58.7613 68.9708C55.2313 65.1821 49.8242 63.5824 44.748 64.1422C39.3884 64.7333 34.6215 67.7233 31.1965 71.812C27.3778 76.3705 25.2969 82.0547 24.4879 87.8996C24.0669 91.0554 23.9283 94.2424 24.0737 97.4228C24.0677 98.8254 24.3077 100.218 24.7827 101.538C25.3247 102.822 26.3046 103.873 27.5482 104.503C28.974 105.191 30.4398 105.793 31.9378 106.306L36.9123 108.237L46.6837 112.03L49.171 112.995C49.8603 113.263 50.1589 112.153 49.4763 111.888Z" fill="#2F2E41"/>
<path d="M28.2461 72.8654C27.0727 72.8654 25.9257 72.5174 24.95 71.8655C23.9743 71.2136 23.2139 70.287 22.7649 69.2029C22.3158 68.1188 22.1983 66.9259 22.4272 65.775C22.6562 64.6242 23.2212 63.567 24.0509 62.7373C24.8807 61.9076 25.9378 61.3425 27.0887 61.1136C28.2396 60.8847 29.4325 61.0021 30.5166 61.4512C31.6007 61.9002 32.5273 62.6607 33.1792 63.6363C33.8311 64.612 34.1791 65.7591 34.1791 66.9325C34.1773 68.5054 33.5516 70.0135 32.4394 71.1257C31.3271 72.238 29.8191 72.8636 28.2461 72.8654ZM28.2461 62.1479C27.2998 62.1479 26.3748 62.4285 25.588 62.9542C24.8011 63.48 24.1879 64.2272 23.8257 65.1015C23.4636 65.9758 23.3689 66.9378 23.5535 67.8659C23.7381 68.794 24.1938 69.6466 24.8629 70.3157C25.5321 70.9849 26.3846 71.4405 27.3127 71.6252C28.2408 71.8098 29.2029 71.715 30.0771 71.3529C30.9514 70.9907 31.6987 70.3775 32.2244 69.5907C32.7501 68.8039 33.0308 67.8788 33.0308 66.9325C33.0293 65.664 32.5248 64.4478 31.6278 63.5508C30.7308 62.6539 29.5147 62.1493 28.2461 62.1479V62.1479Z" fill="#2F2E41"/>
<path d="M127.423 109.632L114.582 99.8109L104.76 112.652L117.601 122.474L127.423 109.632Z" fill="#F0F0F0"/>
<path d="M54.8495 21.9571C56.8784 21.9555 58.8796 22.4291 60.6927 23.3398C62.5057 24.2506 64.0803 25.5732 65.2904 27.2019L72.7887 17.3977L50.2901 0.190063L33.0825 22.6888L42.7794 30.1053C43.7498 27.6986 45.4174 25.6369 47.5681 24.185C49.7189 22.7331 52.2545 21.9573 54.8495 21.9571V21.9571Z" fill="#F0F0F0"/>
<path d="M270.617 212.959H0.382768C0.281252 212.959 0.183893 212.918 0.11211 212.846C0.040327 212.775 0 212.677 0 212.576C0 212.474 0.040327 212.377 0.11211 212.305C0.183893 212.233 0.281252 212.193 0.382768 212.193H270.617C270.719 212.193 270.816 212.233 270.888 212.305C270.96 212.377 271 212.474 271 212.576C271 212.677 270.96 212.775 270.888 212.846C270.816 212.918 270.719 212.959 270.617 212.959Z" fill="#3F3D56"/>
<path d="M204.661 149.446H177.155C176.14 149.444 175.167 149.041 174.449 148.323C173.732 147.606 173.328 146.633 173.327 145.618V143.713C173.328 142.698 173.732 141.725 174.449 141.007C175.167 140.29 176.14 139.886 177.155 139.885H204.661C205.676 139.886 206.649 140.29 207.367 141.007C208.084 141.725 208.488 142.698 208.489 143.713V145.618C208.488 146.633 208.084 147.606 207.367 148.323C206.649 149.041 205.676 149.444 204.661 149.446V149.446Z" fill="#8156FD"/>
<path d="M207.56 145.773H180.053C178.987 145.771 177.966 145.348 177.212 144.594C176.459 143.841 176.035 142.819 176.034 141.754V139.848C176.035 138.783 176.459 137.761 177.212 137.008C177.966 136.254 178.987 135.83 180.053 135.829H207.56C208.625 135.83 209.647 136.254 210.4 137.008C211.154 137.761 211.577 138.783 211.579 139.848V141.754C211.577 142.819 211.154 143.841 210.4 144.594C209.647 145.348 208.625 145.771 207.56 145.773V145.773ZM180.053 136.595C179.19 136.596 178.363 136.939 177.753 137.549C177.144 138.159 176.8 138.986 176.799 139.848V141.754C176.8 142.616 177.144 143.443 177.753 144.053C178.363 144.663 179.19 145.006 180.053 145.007H207.56C208.422 145.006 209.249 144.663 209.859 144.053C210.469 143.443 210.812 142.616 210.813 141.754V139.848C210.812 138.986 210.469 138.159 209.859 137.549C209.249 136.939 208.422 136.596 207.56 136.595H180.053Z" fill="#3F3D56"/>
</g>
<defs>
<clipPath id="clip0_124_72">
<rect width="271" height="212.768" fill="white" transform="translate(0 0.190063)"/>
</clipPath>
</defs>
</svg>
