<svg width="356" height="291" viewBox="0 0 356 291" fill="none" xmlns="http://www.w3.org/2000/svg">
<g clip-path="url(#clip0_124_162)">
<path d="M214.799 269.105C219.953 272.559 225.825 290.019 225.825 290.019C225.825 290.019 207.444 291.217 202.291 287.765C201.066 286.944 200.013 285.89 199.195 284.662C198.377 283.434 197.809 282.057 197.523 280.61C197.237 279.162 197.239 277.673 197.528 276.226C197.818 274.78 198.39 273.404 199.212 272.179C200.033 270.953 201.088 269.901 202.316 269.084C203.544 268.266 204.921 267.698 206.369 267.413C207.816 267.127 209.306 267.13 210.752 267.42C212.199 267.711 213.574 268.283 214.799 269.105V269.105Z" fill="#F1F1F1"/>
<path d="M226.035 289.887L225.747 290.117C215.243 276.939 199.392 272.388 199.233 272.344L199.332 271.989C199.492 272.034 215.454 276.614 226.035 289.887Z" fill="white"/>
<path d="M242.362 262.14C242.033 270.72 225.722 290.314 225.722 290.314C225.722 290.314 210.966 269.524 211.294 260.947C211.452 256.827 213.24 252.939 216.265 250.137C219.291 247.336 223.304 245.851 227.424 246.009C231.544 246.167 235.432 247.956 238.234 250.981C241.035 254.006 242.52 258.02 242.362 262.14Z" fill="#F1F1F1"/>
<path d="M226.029 290.465L225.549 290.292C233.452 268.349 227.308 246.367 227.245 246.147L227.735 246.007C227.799 246.228 233.989 268.362 226.029 290.465Z" fill="white"/>
<path d="M183.794 213.319H43.9997C41.5092 213.316 39.1215 212.325 37.3604 210.564C35.5994 208.803 34.6088 206.415 34.606 203.925V44.168C34.6088 41.6775 35.5994 39.2897 37.3604 37.5287C39.1215 35.7676 41.5092 34.777 43.9997 34.7742H183.794C186.284 34.777 188.672 35.7676 190.433 37.5287C192.194 39.2897 193.185 41.6775 193.188 44.168V203.925C193.185 206.415 192.194 208.803 190.433 210.564C188.672 212.325 186.284 213.316 183.794 213.319Z" fill="#E6E6E6"/>
<path d="M177.262 205.489H50.5321C48.3208 205.487 46.2007 204.607 44.6371 203.044C43.0735 201.48 42.1939 199.36 42.1914 197.149V50.9442C42.1939 48.7329 43.0735 46.6129 44.6371 45.0492C46.2007 43.4856 48.3208 42.606 50.5321 42.6035H177.262C179.473 42.606 181.593 43.4856 183.157 45.0492C184.72 46.6128 185.6 48.7329 185.602 50.9442V197.149C185.6 199.36 184.72 201.48 183.157 203.044C181.593 204.607 179.473 205.487 177.262 205.489Z" fill="white"/>
<path d="M172.221 63.4125H108.289C108.015 63.4129 107.744 63.3592 107.49 63.2546C107.237 63.15 107.007 62.9965 106.813 62.8028C106.619 62.6092 106.465 62.3792 106.36 62.126C106.255 61.8729 106.201 61.6015 106.201 61.3274C106.201 61.0534 106.255 60.782 106.36 60.5289C106.465 60.2757 106.619 60.0457 106.813 59.8521C107.007 59.6584 107.237 59.5049 107.49 59.4003C107.744 59.2957 108.015 59.242 108.289 59.2424H172.221C172.495 59.242 172.766 59.2957 173.019 59.4003C173.273 59.5049 173.503 59.6584 173.697 59.8521C173.891 60.0457 174.045 60.2757 174.15 60.5289C174.255 60.782 174.309 61.0534 174.309 61.3274C174.309 61.6015 174.255 61.8729 174.15 62.126C174.045 62.3792 173.891 62.6092 173.697 62.8028C173.503 62.9965 173.273 63.15 173.019 63.2546C172.766 63.3592 172.495 63.4129 172.221 63.4125Z" fill="#E4E4E4"/>
<path d="M172.22 71.6513H108.289C107.736 71.6513 107.205 71.4316 106.814 71.0406C106.423 70.6496 106.204 70.1192 106.204 69.5662C106.204 69.0132 106.423 68.4828 106.814 68.0918C107.205 67.7008 107.736 67.4811 108.289 67.4811H172.22C172.773 67.4811 173.303 67.7008 173.694 68.0918C174.086 68.4828 174.305 69.0132 174.305 69.5662C174.305 70.1192 174.086 70.6496 173.694 71.0406C173.303 71.4316 172.773 71.6513 172.22 71.6513Z" fill="#E4E4E4"/>
<path d="M136.001 79.8903H108.289C107.736 79.8903 107.205 79.6706 106.814 79.2796C106.423 78.8886 106.204 78.3582 106.204 77.8052C106.204 77.2522 106.423 76.7218 106.814 76.3308C107.205 75.9398 107.736 75.7201 108.289 75.7201H136.001C136.554 75.7201 137.085 75.9398 137.476 76.3308C137.867 76.7218 138.087 77.2522 138.087 77.8052C138.087 78.3582 137.867 78.8886 137.476 79.2796C137.085 79.6706 136.554 79.8903 136.001 79.8903Z" fill="#E4E4E4"/>
<path d="M164.511 113.166H63.5831C63.3091 113.167 63.0376 113.113 62.7843 113.008C62.531 112.904 62.3008 112.75 62.1069 112.557C61.9129 112.363 61.7591 112.133 61.6541 111.88C61.5491 111.627 61.4951 111.355 61.4951 111.081C61.4951 110.807 61.5491 110.536 61.6541 110.283C61.7591 110.029 61.9129 109.799 62.1069 109.606C62.3008 109.412 62.531 109.259 62.7843 109.154C63.0376 109.049 63.3091 108.996 63.5831 108.996H164.511C164.785 108.996 165.056 109.049 165.31 109.154C165.563 109.259 165.793 109.412 165.987 109.606C166.181 109.799 166.335 110.029 166.44 110.283C166.545 110.536 166.599 110.807 166.599 111.081C166.599 111.355 166.545 111.627 166.44 111.88C166.335 112.133 166.181 112.363 165.987 112.557C165.793 112.75 165.563 112.904 165.31 113.008C165.056 113.113 164.785 113.167 164.511 113.166Z" fill="#E4E4E4"/>
<path d="M164.51 121.405H63.5827C63.0297 121.405 62.4993 121.185 62.1083 120.794C61.7172 120.403 61.4976 119.873 61.4976 119.32C61.4976 118.767 61.7172 118.237 62.1083 117.846C62.4993 117.455 63.0297 117.235 63.5827 117.235H164.51C165.063 117.235 165.594 117.455 165.985 117.846C166.376 118.237 166.596 118.767 166.596 119.32C166.596 119.873 166.376 120.403 165.985 120.794C165.594 121.185 165.063 121.405 164.51 121.405Z" fill="#E4E4E4"/>
<path d="M164.511 140.107H63.5831C63.0301 140.107 62.4997 139.887 62.1087 139.496C61.7177 139.105 61.498 138.575 61.498 138.022C61.498 137.469 61.7177 136.939 62.1087 136.548C62.4997 136.157 63.0301 135.937 63.5831 135.937H164.511C165.064 135.937 165.594 136.157 165.985 136.548C166.376 136.939 166.596 137.469 166.596 138.022C166.596 138.575 166.376 139.105 165.985 139.496C165.594 139.887 165.064 140.107 164.511 140.107Z" fill="#E4E4E4"/>
<path d="M164.51 148.346H63.5827C63.0297 148.346 62.4993 148.126 62.1083 147.735C61.7172 147.344 61.4976 146.814 61.4976 146.261C61.4976 145.708 61.7172 145.178 62.1083 144.787C62.4993 144.396 63.0297 144.176 63.5827 144.176H164.51C165.063 144.176 165.594 144.396 165.985 144.787C166.376 145.178 166.596 145.708 166.596 146.261C166.596 146.814 166.376 147.344 165.985 147.735C165.594 148.126 165.063 148.346 164.51 148.346Z" fill="#E4E4E4"/>
<path d="M164.511 167.048H63.5831C63.0301 167.048 62.4997 166.828 62.1087 166.437C61.7177 166.046 61.498 165.516 61.498 164.963C61.498 164.41 61.7177 163.88 62.1087 163.489C62.4997 163.098 63.0301 162.878 63.5831 162.878H164.511C165.064 162.878 165.594 163.098 165.985 163.489C166.376 163.88 166.596 164.41 166.596 164.963C166.596 165.516 166.376 166.046 165.985 166.437C165.594 166.828 165.064 167.048 164.511 167.048Z" fill="#E4E4E4"/>
<path d="M164.51 175.287H63.5827C63.0297 175.287 62.4993 175.067 62.1083 174.676C61.7172 174.285 61.4976 173.755 61.4976 173.202C61.4976 172.649 61.7172 172.119 62.1083 171.728C62.4993 171.337 63.0297 171.117 63.5827 171.117H164.51C165.063 171.117 165.594 171.337 165.985 171.728C166.376 172.119 166.596 172.649 166.596 173.202C166.596 173.755 166.376 174.285 165.985 174.676C165.594 175.067 165.063 175.287 164.51 175.287Z" fill="#E4E4E4"/>
<path d="M164.493 198.109H136.78C136.227 198.109 135.697 197.889 135.306 197.498C134.915 197.107 134.695 196.577 134.695 196.024C134.695 195.471 134.915 194.94 135.306 194.549C135.697 194.158 136.227 193.938 136.78 193.938H164.493C165.046 193.938 165.576 194.158 165.967 194.549C166.358 194.94 166.578 195.471 166.578 196.024C166.578 196.577 166.358 197.107 165.967 197.498C165.576 197.889 165.046 198.109 164.493 198.109Z" fill="#8156FD"/>
<path d="M90.5912 69.8104C90.5969 74.2882 89.081 78.6351 86.292 82.1383C85.3899 83.2785 84.3629 84.3141 83.2301 85.2256C80.1389 87.7332 76.3621 89.2481 72.3949 89.5716C71.8548 89.6184 71.3104 89.6396 70.7618 89.6396C69.6747 89.6399 68.5895 89.5503 67.5172 89.3718C67.1389 89.3122 66.7689 89.2399 66.3989 89.1549C65.7549 89.0116 65.1189 88.8341 64.4937 88.6233C62.4663 87.9485 60.5619 86.949 58.8549 85.6636C58.3999 85.3234 57.962 84.962 57.5368 84.5792C57.0167 84.1179 56.5239 83.6266 56.0611 83.1079C55.9378 82.9718 55.8144 82.8315 55.6954 82.6912C53.6205 80.2626 52.1631 77.3687 51.4474 74.2556C50.7317 71.1426 50.7788 67.9028 51.5848 64.8119C52.3907 61.721 53.9316 58.8706 56.0763 56.5035C58.221 54.1363 60.906 52.3225 63.9026 51.2164C66.8992 50.1103 70.1187 49.7447 73.287 50.1507C76.4554 50.5567 79.4787 51.7223 82.0995 53.5483C84.7204 55.3742 86.8612 57.8065 88.3397 60.638C89.8182 63.4694 90.5906 66.6162 90.5911 69.8105L90.5912 69.8104Z" fill="#E4E4E4"/>
<path d="M70.0718 76.5778C74.5596 76.5778 78.1978 72.9396 78.1978 68.4518C78.1978 63.9639 74.5596 60.3258 70.0718 60.3258C65.5839 60.3258 61.9458 63.9639 61.9458 68.4518C61.9458 72.9396 65.5839 76.5778 70.0718 76.5778Z" fill="#9E616A"/>
<path d="M79.1179 64.4907C79.1547 63.7646 78.9498 63.0467 78.5353 62.4495L78.2419 62.0328C77.1829 59.9916 75.4352 58.1545 74.1553 56.8107C73.1941 55.8029 72.2332 55.3181 71.3102 55.3649C70.6386 55.4129 70.0133 55.7248 69.571 56.2324C68.3557 56.1582 67.1452 56.4401 66.0877 57.0436C65.0303 57.6471 64.1718 58.546 63.6176 59.6301C59.7266 61.684 60.8876 67.7481 60.9002 67.8118L61.8402 69.3895L61.9465 69.1896C61.9465 69.1854 61.9592 69.1684 61.9762 69.1344C62.1591 68.8069 63.1541 66.9869 63.8261 65.8345C64.0713 65.4414 64.3975 65.1051 64.7829 64.8479C65.4122 64.4179 66.1355 64.1452 66.8921 64.0527L68.9587 63.7848L68.1763 64.9585H73.8065L75.9709 64.7033C76.1879 65.5921 77.9059 69.0408 78.1141 69.4575L78.1312 69.4916L78.246 69.7255L78.8882 67.9607C79.2632 66.8433 79.3423 65.6478 79.1179 64.4907Z" fill="#2F2E41"/>
<path d="M58.915 85.7061C59.2637 85.2468 61.071 83.1036 65.2299 81.9682L67.4327 79.5145L76.265 78.1069L80.7599 80.5904L86.2923 82.1383C85.3903 83.2785 84.3633 84.3141 83.2306 85.2256C80.1394 87.7331 76.3625 89.248 72.3953 89.5716C71.8552 89.6183 71.3109 89.6396 70.7624 89.6396C69.6753 89.6399 68.59 89.5502 67.5177 89.3717C67.1393 89.3122 66.7693 89.2399 66.3993 89.1548C65.7553 89.0115 65.1194 88.8341 64.4942 88.6233C62.4897 87.9573 60.6058 86.9722 58.915 85.7061C58.8937 85.6933 58.8767 85.6763 58.8555 85.6636L58.915 85.7061Z" fill="#8156FD"/>
<path d="M226.532 10.476H1.26181C0.927271 10.4757 0.606538 10.3426 0.369981 10.106C0.133425 9.86948 0.000364695 9.54875 0 9.2142V1.7919C0.000364695 1.45736 0.133425 1.13662 0.369981 0.900068C0.606538 0.663512 0.927271 0.530455 1.26181 0.53009H226.532C226.867 0.530455 227.187 0.663512 227.424 0.900068C227.66 1.13662 227.794 1.45736 227.794 1.7919V9.2142C227.794 9.54875 227.66 9.86948 227.424 10.106C227.187 10.3426 226.867 10.4757 226.532 10.476Z" fill="#8156FD"/>
<path d="M7.3227 6.93252C8.3121 6.93252 9.11416 6.13046 9.11416 5.14106C9.11416 4.15167 8.3121 3.34961 7.3227 3.34961C6.33331 3.34961 5.53125 4.15167 5.53125 5.14106C5.53125 6.13046 6.33331 6.93252 7.3227 6.93252Z" fill="white"/>
<path d="M14.1225 6.93252C15.1119 6.93252 15.914 6.13046 15.914 5.14106C15.914 4.15167 15.1119 3.34961 14.1225 3.34961C13.1331 3.34961 12.3311 4.15167 12.3311 5.14106C12.3311 6.13046 13.1331 6.93252 14.1225 6.93252Z" fill="white"/>
<path d="M20.9223 6.93252C21.9117 6.93252 22.7138 6.13046 22.7138 5.14106C22.7138 4.15167 21.9117 3.34961 20.9223 3.34961C19.9329 3.34961 19.1309 4.15167 19.1309 5.14106C19.1309 6.13046 19.9329 6.93252 20.9223 6.93252Z" fill="white"/>
<path d="M219.87 3.908H212.04C211.887 3.90669 211.74 3.84501 211.633 3.73638C211.525 3.62774 211.465 3.48097 211.465 3.32799C211.465 3.17502 211.525 3.02824 211.633 2.9196C211.74 2.81097 211.887 2.74929 212.04 2.74798H219.87C219.946 2.74732 220.022 2.76184 220.093 2.7907C220.164 2.81955 220.229 2.86217 220.283 2.91609C220.338 2.97002 220.381 3.03418 220.41 3.10487C220.44 3.17557 220.455 3.2514 220.455 3.32799C220.455 3.40458 220.44 3.48041 220.41 3.55111C220.381 3.6218 220.338 3.68597 220.283 3.73989C220.229 3.79381 220.164 3.83643 220.093 3.86529C220.022 3.89414 219.946 3.90866 219.87 3.908Z" fill="white"/>
<path d="M219.87 6.08305H212.039C211.886 6.08305 211.738 6.02194 211.629 5.91317C211.521 5.8044 211.459 5.65687 211.459 5.50304C211.459 5.34921 211.521 5.20168 211.629 5.09291C211.738 4.98413 211.886 4.92303 212.039 4.92303H219.87C219.946 4.92237 220.022 4.93689 220.093 4.96574C220.164 4.9946 220.229 5.03721 220.283 5.09114C220.337 5.14506 220.381 5.20923 220.41 5.27992C220.44 5.35062 220.455 5.42645 220.455 5.50304C220.455 5.57963 220.44 5.65546 220.41 5.72616C220.381 5.79685 220.337 5.86101 220.283 5.91494C220.229 5.96886 220.164 6.01148 220.093 6.04034C220.022 6.06919 219.946 6.08371 219.87 6.08305Z" fill="white"/>
<path d="M219.87 8.25806H212.04C211.887 8.25681 211.74 8.19516 211.633 8.08652C211.525 7.97788 211.464 7.83106 211.464 7.67804C211.464 7.52502 211.525 7.3782 211.633 7.26956C211.74 7.16092 211.887 7.09927 212.04 7.09802H219.87C220.023 7.09927 220.169 7.16092 220.277 7.26956C220.385 7.3782 220.445 7.52502 220.445 7.67804C220.445 7.83106 220.385 7.97788 220.277 8.08652C220.169 8.19516 220.023 8.25681 219.87 8.25806Z" fill="white"/>
<path d="M281.716 200.129C281.355 199.736 281.085 199.27 280.924 198.762C280.764 198.255 280.716 197.718 280.786 197.19C280.855 196.662 281.039 196.155 281.325 195.706C281.611 195.257 281.993 194.876 282.442 194.59L279.457 181.994L285.775 184.302L287.641 195.91C288.072 196.697 288.198 197.614 287.998 198.488C287.797 199.362 287.283 200.131 286.552 200.651C285.822 201.171 284.926 201.405 284.034 201.309C283.143 201.213 282.318 200.793 281.716 200.129Z" fill="#9E616A"/>
<path d="M266.521 147.344L269.057 153.864C269.057 153.864 267.97 160.385 269.781 161.834C271.593 163.283 270.868 163.283 270.868 164.37C270.93 165.149 271.156 165.907 271.531 166.594C271.905 167.28 272.42 167.88 273.042 168.355C274.491 169.441 281.011 191.539 281.011 191.539H287.532C287.321 189.855 287.321 188.151 287.532 186.467C287.894 183.932 286.445 177.411 285.721 176.324C284.996 175.238 285.721 173.789 285.721 171.615C285.721 169.441 284.272 168.355 284.272 164.732C284.272 161.11 279.924 132.854 280.287 129.593C280.649 126.333 276.664 123.435 276.664 123.435H273.042L266.521 147.344Z" fill="#E4E4E4"/>
<path d="M283.197 285.114H278.378L276.085 266.526L283.197 266.526L283.197 285.114Z" fill="#9E616A"/>
<path d="M284.426 289.786L268.887 289.785V289.589C268.887 287.985 269.524 286.446 270.658 285.312C271.793 284.178 273.331 283.541 274.935 283.541H274.935L277.774 281.387L283.07 283.541L284.426 283.541L284.426 289.786Z" fill="#2F2E41"/>
<path d="M239.111 284.977L234.585 283.321L238.818 265.076L245.498 267.52L239.111 284.977Z" fill="#9E616A"/>
<path d="M238.661 289.786L224.068 284.447L224.135 284.262C224.686 282.756 225.813 281.53 227.268 280.855C228.723 280.179 230.387 280.109 231.893 280.66L231.893 280.66L235.299 279.613L239.532 283.455L240.806 283.921L238.661 289.786Z" fill="#2F2E41"/>
<path d="M272.579 198.194C272.579 198.194 269.319 214.133 274.753 212.684C280.187 211.235 278.013 197.469 278.013 197.469L272.579 198.194Z" fill="#A0616A"/>
<path d="M248.67 184.971C248.67 184.971 244.323 190.768 244.323 194.028C244.323 197.288 242.874 226.269 242.874 226.269C242.874 226.269 231.876 269.424 234.049 271.598C236.223 273.771 243.83 275.945 244.917 274.858C246.003 273.771 255.553 229.167 255.553 229.167L264.61 204.895L272.942 239.672L273.666 276.622C273.666 276.622 282.723 278.796 284.534 277.347C286.345 275.898 286.707 240.759 284.534 228.442C282.36 216.125 284.896 187.869 284.896 187.869L248.67 184.971Z" fill="#2F2E41"/>
<path d="M263.198 107.63C269.201 107.63 274.066 102.764 274.066 96.7622C274.066 90.7601 269.201 85.8945 263.198 85.8945C257.196 85.8945 252.331 90.7601 252.331 96.7622C252.331 102.764 257.196 107.63 263.198 107.63Z" fill="#9E616A"/>
<path d="M249.395 123.388C249.395 123.388 252.524 118.726 258.683 112.567C261.943 111.481 267.592 112.114 269.55 112.567C278.607 124.522 279.177 123.727 281.534 130.407C282.145 132.139 282.451 133.803 282.179 135.161C281.093 140.595 284.534 184.609 284.896 186.058C285.259 187.507 287.794 189.319 285.259 189.319C282.723 189.319 244.324 187.87 245.048 186.783C245.773 185.696 249.395 123.388 249.395 123.388Z" fill="#E4E4E4"/>
<path opacity="0.1" d="M247.736 186.305L258.633 162.33L253.185 187.827L247.736 186.305Z" fill="black"/>
<path d="M259.911 106.83C260.928 106.073 261.865 105.213 262.706 104.264C263.551 103.307 264.08 102.112 264.221 100.843C264.283 100.21 264.183 99.5724 263.932 98.9884C263.681 98.4043 263.286 97.8934 262.784 97.503C261.749 96.7718 260.171 96.8144 259.312 97.746C259.727 96.4042 260.106 94.8216 259.265 93.6965C258.5 92.6725 257.073 92.4985 255.84 92.1609C253.462 91.4989 251.416 89.9749 250.102 87.8861L252.195 88.3194L251.962 86.8268L253.697 87.4301L253.712 85.3513L255.503 86.3532C257.695 84.3434 260.584 83.267 263.557 83.3524C265.056 83.3773 266.525 83.7806 267.827 84.5247C269.132 85.2795 270.12 86.4803 270.61 87.9059C271.531 86.9492 273.175 87.0232 274.273 87.7709C275.371 88.5186 276.016 89.7694 276.458 91.0218C277.336 93.4236 277.54 96.0194 277.049 98.5288C276.543 101.044 275.188 103.309 273.21 104.943C271.394 106.329 269.232 107.19 266.959 107.43C264.696 107.664 262.411 107.567 260.176 107.14" fill="#2F2E41"/>
<path d="M244.344 200.082C244.704 199.689 244.974 199.223 245.135 198.715C245.295 198.208 245.343 197.671 245.273 197.143C245.204 196.615 245.02 196.108 244.734 195.659C244.448 195.21 244.066 194.829 243.617 194.543L246.603 181.947L240.284 184.255L238.418 195.863C237.988 196.65 237.861 197.567 238.061 198.441C238.262 199.315 238.777 200.084 239.507 200.604C240.237 201.124 241.133 201.358 242.025 201.262C242.916 201.166 243.741 200.746 244.344 200.082V200.082Z" fill="#9E616A"/>
<path d="M253.018 123.388H249.395C249.395 123.388 245.41 126.286 245.773 129.546C246.135 132.807 241.788 161.063 241.788 164.685C241.788 168.308 240.339 169.395 240.339 171.568C240.339 173.742 241.063 175.191 240.339 176.277C239.614 177.364 238.165 183.885 238.527 186.421C238.738 188.104 238.738 189.808 238.527 191.492H245.048C245.048 191.492 251.569 169.395 253.018 168.308C253.639 167.833 254.154 167.233 254.528 166.547C254.903 165.86 255.129 165.102 255.191 164.323C255.191 163.236 254.467 163.236 256.278 161.787C258.089 160.338 257.002 153.818 257.002 153.818L259.538 147.297L253.018 123.388Z" fill="#E4E4E4"/>
<path d="M355.494 290.796H156.779C156.713 290.796 156.647 290.783 156.585 290.758C156.523 290.733 156.467 290.695 156.42 290.648C156.373 290.601 156.336 290.546 156.31 290.484C156.285 290.422 156.271 290.357 156.271 290.29C156.271 290.223 156.285 290.157 156.31 290.096C156.336 290.034 156.373 289.978 156.42 289.931C156.467 289.884 156.523 289.847 156.585 289.822C156.647 289.796 156.713 289.783 156.779 289.784H355.494C355.561 289.783 355.627 289.796 355.688 289.822C355.75 289.847 355.806 289.884 355.853 289.931C355.9 289.978 355.938 290.034 355.963 290.096C355.989 290.157 356.002 290.223 356.002 290.29C356.002 290.357 355.989 290.422 355.963 290.484C355.938 290.546 355.9 290.601 355.853 290.648C355.806 290.695 355.75 290.733 355.688 290.758C355.627 290.783 355.561 290.796 355.494 290.796Z" fill="#CACACA"/>
</g>
<defs>
<clipPath id="clip0_124_162">
<rect width="356" height="290.266" fill="white" transform="translate(0 0.53009)"/>
</clipPath>
</defs>
</svg>
